# xmcd
#
# Track frame offsets:
#	150
#	13747
#	27209
#	42516
#	54103
#	70744
#	88519
#	102331
#	113779
#	128343
#	140201
#	150949
#	160923
#
# Disc length: 2394 seconds
# Revision: 0
# Processed by: cddbd v1.5.2PL0 Copyright (c) Steve Scherf et al.
# Submitted via: dBpowerAMP V12.0
#
DISCID=9d09580d
DTITLE=The Flyin' A's - No Holds Barred
DYEAR=2019
DGENRE=Country
TTITLE0=Going Crazy
TTITLE1=Rhyme Or Reason
TTITLE2=She Feels Like Home
TTITLE3=Heart Brakes
TTITLE4=Coal Tattoo
TTITLE5=Faith And Gasoline
TTITLE6=What's Wrong With You For Loving Me
TTITLE7=First Taste
TTITLE8=We Will Again
TTITLE9=House For My Dog
TTITLE10=Nothing Can Stop My Loving You
TTITLE11=Lungs
TTITLE12=Letting Go
EXTD=
EXTT0=
EXTT1=
EXTT2=
EXTT3=
EXTT4=
EXTT5=
EXTT6=
EXTT7=
EXTT8=
EXTT9=
EXTT10=
EXTT11=
EXTT12=
PLAYORDER=
